<svg width="59.631428" height="43.321442" viewBox="0 0 59.6314 43.3214" fill="none" xmlns="http://www.w3.org/2000/svg" xmlns:xlink="http://www.w3.org/1999/xlink">
	<desc>
			Created with Pixso.
	</desc>
	<defs/>
	<path id="Vector" d="M0 20.74L0 39.38C0 39.9 0.1 40.41 0.3 40.89C0.5 41.37 0.79 41.8 1.16 42.17C1.52 42.53 1.96 42.82 2.44 43.02C2.92 43.22 3.43 43.32 3.95 43.32L15.8 43.32L15.8 30.97L0 20.74ZM38.46 28.2L29.81 33.8L21.15 28.2L21.15 7.03L29.81 12.58L38.47 7.03L38.46 28.2ZM43.82 30.97L43.82 43.32L55.68 43.32C56.19 43.32 56.71 43.22 57.18 43.02C57.66 42.82 58.1 42.53 58.47 42.17C58.83 41.8 59.12 41.37 59.32 40.89C59.52 40.41 59.63 39.9 59.63 39.38L59.63 20.74L43.82 30.97ZM59.63 14.5L43.82 24.73L43.82 3.59L47.46 1.26C52.71 -2.11 59.63 1.65 59.63 7.88L59.63 14.5ZM15.8 3.59L15.8 24.73L0 14.5L0 7.88C0 1.65 6.91 -2.11 12.17 1.26L15.8 3.59Z" fill="#FFFFFF" fill-opacity="1.000000" fill-rule="evenodd"/>
</svg>
