<svg width="18.812500" height="20.118923" viewBox="0 0 18.8125 20.1189" fill="none" xmlns="http://www.w3.org/2000/svg" xmlns:xlink="http://www.w3.org/1999/xlink">
	<desc>
			Created with Pixso.
	</desc>
	<defs/>
	<path id="Vector" d="M17.5 10.05C17.5 12.35 16.64 14.55 15.12 16.18C13.61 17.8 11.55 18.71 9.4 18.71L9.4 20.11C14.6 20.11 18.81 15.61 18.81 10.05L17.5 10.05ZM9.4 18.71C7.25 18.71 5.2 17.8 3.68 16.18C2.16 14.55 1.31 12.35 1.31 10.05L0 10.05C0 15.61 4.21 20.11 9.4 20.11L9.4 18.71ZM1.31 10.05C1.31 7.76 2.16 5.56 3.68 3.93C5.2 2.31 7.25 1.4 9.4 1.4L9.4 0C4.21 0 0 4.5 0 10.05L1.31 10.05ZM12.46 12.16C11.13 12.16 9.85 11.59 8.91 10.58C7.96 9.57 7.43 8.21 7.43 6.78L6.12 6.78C6.12 8.58 6.79 10.3 7.98 11.58C9.17 12.85 10.78 13.56 12.46 13.56L12.46 12.16ZM16.77 9.56C16.33 10.35 15.69 11.01 14.94 11.46C14.18 11.92 13.33 12.16 12.46 12.16L12.46 13.56C13.56 13.56 14.63 13.26 15.58 12.69C16.54 12.11 17.33 11.28 17.9 10.28L16.77 9.56ZM7.43 6.78C7.43 5.85 7.66 4.94 8.08 4.13C8.51 3.33 9.12 2.65 9.87 2.17L9.19 0.97C8.25 1.57 7.48 2.43 6.94 3.44C6.4 4.46 6.12 5.61 6.12 6.78L7.43 6.78ZM9.4 1.4C9.36 1.4 9.31 1.39 9.27 1.37C9.23 1.35 9.2 1.32 9.17 1.29C9.13 1.25 9.1 1.2 9.1 1.14C9.09 1.11 9.09 1.03 9.19 0.97L9.87 2.17C10.31 1.89 10.45 1.36 10.4 0.96C10.34 0.53 10.03 0 9.4 0L9.4 1.4ZM17.9 10.28C17.84 10.38 17.76 10.39 17.73 10.38C17.68 10.37 17.64 10.34 17.6 10.31C17.57 10.27 17.54 10.23 17.52 10.19C17.51 10.15 17.5 10.1 17.5 10.05L18.81 10.05C18.81 9.38 18.31 9.05 17.91 8.99C17.53 8.94 17.04 9.09 16.77 9.56L17.9 10.28Z" fill="#FFFFFF" fill-opacity="1.000000" fill-rule="nonzero"/>
</svg>
