<svg width="14.000000" height="15.599998" viewBox="0 0 14 15.6" fill="none" xmlns="http://www.w3.org/2000/svg" xmlns:xlink="http://www.w3.org/1999/xlink">
	<desc>
			Created with Pixso.
	</desc>
	<defs/>
	<path id="Vector" d="M6.64 2.64L6.64 0L7.35 0L7.35 2.64L6.64 2.64ZM10.51 4.44L10.03 3.9L11.68 1.98L12.19 2.56L10.51 4.44ZM11.62 8.19L11.62 7.4L14 7.4L14 8.19L11.62 8.19ZM6.64 15.6L6.64 12.96L7.35 12.96L7.35 15.6L6.64 15.6ZM3.51 4.41L1.78 2.57L2.31 2.02L3.99 3.88L3.51 4.41ZM11.68 13.61L10.03 11.69L10.5 11.17L12.18 13.01L11.68 13.61ZM0 8.19L0 7.4L2.37 7.4L2.37 8.19L0 8.19ZM2.29 13.61L1.81 13.02L3.47 11.17L3.72 11.45L3.98 11.72L2.29 13.61ZM7 11.71C6.02 11.71 5.19 11.33 4.51 10.57C3.82 9.81 3.48 8.88 3.48 7.8C3.48 6.71 3.82 5.79 4.51 5.02C5.19 4.26 6.02 3.88 6.99 3.88C7.97 3.88 8.8 4.26 9.48 5.02C10.17 5.78 10.51 6.7 10.51 7.79C10.51 8.88 10.17 9.8 9.48 10.57C8.8 11.33 7.97 11.71 7 11.71ZM6.99 10.93C7.77 10.93 8.43 10.62 8.98 10.01C9.53 9.39 9.81 8.66 9.81 7.79C9.81 6.93 9.53 6.2 8.98 5.58C8.43 4.97 7.77 4.66 6.99 4.66C6.22 4.66 5.56 4.97 5.01 5.58C4.46 6.2 4.18 6.93 4.18 7.79C4.18 8.66 4.46 9.39 5.01 10.01C5.56 10.62 6.22 10.93 6.99 10.93Z" fill="#FFFFFF" fill-opacity="1.000000" fill-rule="nonzero"/>
</svg>
