<svg width="52.500381" height="46.874573" viewBox="0 0 52.5004 46.8746" fill="none" xmlns="http://www.w3.org/2000/svg" xmlns:xlink="http://www.w3.org/1999/xlink">
	<desc>
			Created with Pixso.
	</desc>
	<defs/>
	<path id="Vector" d="M51.77 0.51C51.47 0.26 51.12 0.09 50.74 0.03C50.36 -0.04 49.98 0 49.62 0.14L2.12 18.73C1.45 18.99 0.88 19.46 0.5 20.08C0.12 20.69 -0.06 21.41 0.01 22.13C0.07 22.85 0.37 23.53 0.85 24.07C1.34 24.6 1.98 24.97 2.69 25.11L15 27.52L15 41.24C14.99 41.99 15.22 42.72 15.63 43.34C16.05 43.96 16.65 44.44 17.34 44.72C18.03 45 18.79 45.07 19.53 44.92C20.26 44.76 20.93 44.39 21.44 43.85L27.38 37.69L36.79 45.93C37.47 46.53 38.35 46.87 39.26 46.87C39.65 46.87 40.05 46.81 40.43 46.68C41.05 46.49 41.6 46.13 42.04 45.65C42.48 45.18 42.79 44.59 42.93 43.96L52.44 2.57C52.53 2.2 52.51 1.81 52.39 1.45C52.27 1.08 52.05 0.76 51.77 0.51ZM37.44 8.95L16.44 23.98L4.81 21.7L37.44 8.95ZM18.75 41.24L18.75 30.12L24.56 35.21L18.75 41.24ZM39.26 43.12L19.88 26.13L47.77 6.14L39.26 43.12Z" fill="#FFFFFF" fill-opacity="1.000000" fill-rule="nonzero"/>
</svg>
