<svg width="46.093750" height="37.500000" viewBox="0 0 46.0938 37.5" fill="none" xmlns="http://www.w3.org/2000/svg" xmlns:xlink="http://www.w3.org/1999/xlink">
	<desc>
			Created with Pixso.
	</desc>
	<defs/>
	<path id="Vector" d="M39.06 18.75L39.06 12.5C39.06 12.29 39.02 12.09 38.94 11.9C38.86 11.71 38.75 11.53 38.6 11.39L27.66 0.45C27.52 0.31 27.35 0.19 27.16 0.11C26.97 0.04 26.76 -0.01 26.56 0L7.81 0C6.98 0 6.18 0.32 5.6 0.91C5.01 1.5 4.68 2.29 4.68 3.12L4.68 18.75C4.68 19.16 4.85 19.56 5.14 19.85C5.43 20.14 5.83 20.31 6.25 20.31C6.66 20.31 7.06 20.14 7.35 19.85C7.64 19.56 7.81 19.16 7.81 18.75L7.81 3.12L25 3.12L25 12.5C25 12.91 25.16 13.31 25.45 13.6C25.75 13.89 26.14 14.06 26.56 14.06L35.93 14.06L35.93 18.75C35.93 19.16 36.1 19.56 36.39 19.85C36.68 20.14 37.08 20.31 37.5 20.31C37.91 20.31 38.31 20.14 38.6 19.85C38.89 19.56 39.06 19.16 39.06 18.75ZM28.12 5.33L33.72 10.93L28.12 10.93L28.12 5.33ZM10.15 26.56L10.15 35.93C10.15 36.35 9.99 36.74 9.69 37.04C9.4 37.33 9 37.5 8.59 37.5C8.17 37.5 7.78 37.33 7.48 37.04C7.19 36.74 7.03 36.35 7.03 35.93L7.03 32.81L3.12 32.81L3.12 35.93C3.12 36.35 2.96 36.74 2.66 37.04C2.37 37.33 1.97 37.5 1.56 37.5C1.14 37.5 0.75 37.33 0.45 37.04C0.16 36.74 0 36.35 0 35.93L0 26.56C0 26.14 0.16 25.75 0.45 25.45C0.75 25.16 1.14 25 1.56 25C1.97 25 2.37 25.16 2.66 25.45C2.96 25.75 3.12 26.14 3.12 26.56L3.12 29.68L7.03 29.68L7.03 26.56C7.03 26.14 7.19 25.75 7.48 25.45C7.78 25.16 8.17 25 8.59 25C9 25 9.4 25.16 9.69 25.45C9.99 25.75 10.15 26.14 10.15 26.56ZM21.09 26.56C21.09 26.97 20.92 27.37 20.63 27.66C20.34 27.96 19.94 28.12 19.53 28.12L17.96 28.12L17.96 35.93C17.96 36.35 17.8 36.74 17.51 37.04C17.21 37.33 16.82 37.5 16.4 37.5C15.99 37.5 15.59 37.33 15.3 37.04C15 36.74 14.84 36.35 14.84 35.93L14.84 28.12L13.28 28.12C12.86 28.12 12.46 27.96 12.17 27.66C11.88 27.37 11.71 26.97 11.71 26.56C11.71 26.14 11.88 25.75 12.17 25.45C12.46 25.16 12.86 25 13.28 25L19.53 25C19.94 25 20.34 25.16 20.63 25.45C20.92 25.75 21.09 26.14 21.09 26.56ZM35.15 26.56L35.15 35.93C35.15 36.35 34.99 36.74 34.69 37.04C34.4 37.33 34 37.5 33.59 37.5C33.17 37.5 32.78 37.33 32.48 37.04C32.19 36.74 32.03 36.35 32.03 35.93L32.03 31.25L30.15 33.75C30.01 33.94 29.82 34.1 29.6 34.21C29.38 34.31 29.14 34.37 28.9 34.37C28.66 34.37 28.42 34.31 28.2 34.21C27.99 34.1 27.8 33.94 27.65 33.75L25.78 31.25L25.78 35.93C25.78 36.35 25.61 36.74 25.32 37.04C25.03 37.33 24.63 37.5 24.21 37.5C23.8 37.5 23.4 37.33 23.11 37.04C22.82 36.74 22.65 36.35 22.65 35.93L22.65 26.56C22.65 26.23 22.75 25.91 22.95 25.64C23.14 25.38 23.41 25.18 23.72 25.08C24.03 24.97 24.37 24.97 24.68 25.07C24.99 25.16 25.27 25.36 25.46 25.62L28.9 30.2L32.34 25.62C32.54 25.36 32.81 25.16 33.12 25.07C33.44 24.97 33.77 24.97 34.08 25.08C34.39 25.18 34.66 25.38 34.86 25.64C35.05 25.91 35.15 26.23 35.15 26.56ZM46.09 35.93C46.09 36.35 45.92 36.74 45.63 37.04C45.34 37.33 44.94 37.5 44.53 37.5L39.06 37.5C38.64 37.5 38.25 37.33 37.95 37.04C37.66 36.74 37.5 36.35 37.5 35.93L37.5 26.56C37.5 26.14 37.66 25.75 37.95 25.45C38.25 25.16 38.64 25 39.06 25C39.47 25 39.87 25.16 40.16 25.45C40.46 25.75 40.62 26.14 40.62 26.56L40.62 34.37L44.53 34.37C44.94 34.37 45.34 34.53 45.63 34.83C45.92 35.12 46.09 35.52 46.09 35.93Z" fill="#FFFFFF" fill-opacity="1.000000" fill-rule="nonzero"/>
</svg>
