<svg width="36.718750" height="40.625000" viewBox="0 0 36.7188 40.625" fill="none" xmlns="http://www.w3.org/2000/svg" xmlns:xlink="http://www.w3.org/1999/xlink">
	<desc>
			Created with Pixso.
	</desc>
	<defs/>
	<path id="Vector" d="M36.26 11.39L25.32 0.45C25.17 0.31 25 0.19 24.81 0.11C24.62 0.04 24.42 -0.01 24.21 0L5.46 0C4.63 0 3.84 0.32 3.25 0.91C2.67 1.5 2.34 2.29 2.34 3.12L2.34 17.18C2.34 17.6 2.5 17.99 2.8 18.29C3.09 18.58 3.49 18.75 3.9 18.75C4.32 18.75 4.71 18.58 5.01 18.29C5.3 17.99 5.46 17.6 5.46 17.18L5.46 3.12L22.65 3.12L22.65 12.5C22.65 12.91 22.82 13.31 23.11 13.6C23.4 13.89 23.8 14.06 24.21 14.06L33.59 14.06L33.59 37.5L28.9 37.5C28.49 37.5 28.09 37.66 27.8 37.95C27.5 38.25 27.34 38.64 27.34 39.06C27.34 39.47 27.5 39.87 27.8 40.16C28.09 40.46 28.49 40.62 28.9 40.62L33.59 40.62C34.42 40.62 35.21 40.29 35.8 39.7C36.38 39.12 36.71 38.32 36.71 37.5L36.71 12.5C36.71 12.29 36.67 12.09 36.6 11.9C36.52 11.71 36.4 11.53 36.26 11.39ZM25.78 5.33L31.38 10.93L25.78 10.93L25.78 5.33ZM23.4 33.65C23.33 34.25 23.14 34.82 22.83 35.34C22.52 35.85 22.1 36.29 21.6 36.62C20.59 37.3 19.33 37.5 18.18 37.5C17.18 37.49 16.19 37.36 15.22 37.1C14.82 36.99 14.48 36.73 14.28 36.37C14.07 36 14.02 35.58 14.13 35.18C14.25 34.78 14.51 34.44 14.87 34.24C15.23 34.03 15.66 33.98 16.06 34.09C16.91 34.33 18.99 34.62 19.88 34.02C20.05 33.91 20.24 33.73 20.3 33.26C20.36 32.74 20.16 32.46 17.8 31.77C15.97 31.25 12.92 30.36 13.31 27.26C13.37 26.67 13.56 26.11 13.86 25.6C14.17 25.1 14.58 24.67 15.07 24.34C17.38 22.78 21.06 23.69 21.48 23.8C21.88 23.91 22.22 24.17 22.43 24.53C22.64 24.88 22.7 25.31 22.59 25.71C22.49 26.11 22.23 26.45 21.87 26.66C21.51 26.87 21.08 26.93 20.68 26.83C19.81 26.6 17.71 26.33 16.81 26.93C16.69 27.01 16.59 27.12 16.53 27.25C16.46 27.37 16.42 27.51 16.42 27.65C16.4 27.83 16.39 27.86 16.64 28.02C17.09 28.31 17.9 28.55 18.68 28.77C20.6 29.33 23.83 30.27 23.4 33.65ZM10.15 25L10.15 32.42C10.15 33.76 9.62 35.06 8.66 36.01C7.71 36.96 6.42 37.5 5.07 37.5C3.73 37.5 2.43 36.96 1.48 36.01C0.53 35.06 0 33.76 0 32.42C0 32 0.16 31.61 0.45 31.31C0.75 31.02 1.14 30.85 1.56 30.85C1.97 30.85 2.37 31.02 2.66 31.31C2.96 31.61 3.12 32 3.12 32.42C3.12 32.93 3.33 33.43 3.69 33.8C4.06 34.16 4.56 34.37 5.07 34.37C5.59 34.37 6.09 34.16 6.45 33.8C6.82 33.43 7.03 32.93 7.03 32.42L7.03 25C7.03 24.58 7.19 24.18 7.48 23.89C7.78 23.6 8.17 23.43 8.59 23.43C9 23.43 9.4 23.6 9.69 23.89C9.99 24.18 10.15 24.58 10.15 25Z" fill="#FFFFFF" fill-opacity="1.000000" fill-rule="nonzero"/>
</svg>
