<svg width="35.936646" height="37.500427" viewBox="0 0 35.9366 37.5004" fill="none" xmlns="http://www.w3.org/2000/svg" xmlns:xlink="http://www.w3.org/1999/xlink">
	<desc>
			Created with Pixso.
	</desc>
	<defs/>
	<path id="Vector" d="M10.84 25.52L6.94 36.46C6.83 36.76 6.63 37.02 6.36 37.21C6.1 37.4 5.79 37.5 5.46 37.5C5.14 37.5 4.83 37.4 4.56 37.21C4.3 37.02 4.1 36.76 3.99 36.46L0.09 25.52C0.02 25.33 -0.01 25.12 0 24.92C0.01 24.71 0.06 24.51 0.15 24.33C0.23 24.14 0.36 23.97 0.51 23.84C0.66 23.7 0.84 23.59 1.03 23.52C1.23 23.45 1.43 23.42 1.64 23.43C1.84 23.44 2.04 23.5 2.23 23.58C2.41 23.67 2.58 23.79 2.72 23.95C2.85 24.1 2.96 24.28 3.03 24.47L5.46 31.29L7.9 24.47C8.04 24.08 8.33 23.76 8.7 23.58C9.08 23.41 9.51 23.38 9.9 23.52C10.29 23.66 10.6 23.95 10.78 24.33C10.96 24.7 10.98 25.13 10.84 25.52ZM34.37 26.56C34.78 26.56 35.18 26.39 35.47 26.1C35.77 25.81 35.93 25.41 35.93 25C35.93 24.58 35.77 24.18 35.47 23.89C35.18 23.6 34.78 23.43 34.37 23.43L28.12 23.43C27.7 23.43 27.31 23.6 27.01 23.89C26.72 24.18 26.56 24.58 26.56 25L26.56 35.93C26.56 36.35 26.72 36.74 27.01 37.04C27.31 37.33 27.7 37.5 28.12 37.5L34.37 37.5C34.78 37.5 35.18 37.33 35.47 37.04C35.77 36.74 35.93 36.35 35.93 35.93C35.93 35.52 35.77 35.12 35.47 34.83C35.18 34.53 34.78 34.37 34.37 34.37L29.68 34.37L29.68 32.03L32.81 32.03C33.22 32.03 33.62 31.86 33.91 31.57C34.2 31.28 34.37 30.88 34.37 30.46C34.37 30.05 34.2 29.65 33.91 29.36C33.62 29.07 33.22 28.9 32.81 28.9L29.68 28.9L29.68 26.56L34.37 26.56ZM21.87 23.43C21.45 23.43 21.06 23.6 20.76 23.89C20.47 24.18 20.31 24.58 20.31 25L20.31 32.42C20.31 32.93 20.1 33.43 19.73 33.8C19.37 34.16 18.87 34.37 18.35 34.37C17.84 34.37 17.34 34.16 16.97 33.8C16.61 33.43 16.4 32.93 16.4 32.42L16.4 25C16.4 24.58 16.24 24.18 15.94 23.89C15.65 23.6 15.25 23.43 14.84 23.43C14.42 23.43 14.03 23.6 13.73 23.89C13.44 24.18 13.28 24.58 13.28 25L13.28 32.42C13.28 33.76 13.81 35.06 14.76 36.01C15.72 36.96 17.01 37.5 18.35 37.5C19.7 37.5 20.99 36.96 21.94 36.01C22.9 35.06 23.43 33.76 23.43 32.42L23.43 25C23.43 24.58 23.27 24.18 22.97 23.89C22.68 23.6 22.28 23.43 21.87 23.43ZM35.93 12.5L35.93 17.18C35.93 17.6 35.77 17.99 35.47 18.29C35.18 18.58 34.78 18.75 34.37 18.75C33.95 18.75 33.56 18.58 33.26 18.29C32.97 17.99 32.81 17.6 32.81 17.18L32.81 14.06L23.43 14.06C23.02 14.06 22.62 13.89 22.33 13.6C22.03 13.31 21.87 12.91 21.87 12.5L21.87 3.12L4.68 3.12L4.68 17.18C4.68 17.6 4.52 17.99 4.22 18.29C3.93 18.58 3.53 18.75 3.12 18.75C2.7 18.75 2.31 18.58 2.01 18.29C1.72 17.99 1.56 17.6 1.56 17.18L1.56 3.12C1.56 2.29 1.89 1.5 2.47 0.91C3.06 0.32 3.85 0 4.68 0L23.43 0C23.64 -0.01 23.84 0.04 24.03 0.11C24.22 0.19 24.39 0.31 24.54 0.45L35.47 11.39C35.62 11.53 35.73 11.71 35.81 11.9C35.89 12.09 35.93 12.29 35.93 12.5ZM30.6 10.93L24.99 5.33L24.99 10.93L30.6 10.93Z" fill="#FFFFFF" fill-opacity="1.000000" fill-rule="nonzero"/>
</svg>
