<svg width="50.002075" height="32.625000" viewBox="0 0 50.0021 32.625" fill="none" xmlns="http://www.w3.org/2000/svg" xmlns:xlink="http://www.w3.org/1999/xlink">
	<desc>
			Created with Pixso.
	</desc>
	<defs/>
	<path id="Vector" d="M28.05 32.62L46.63 32.62C47.22 32.62 47.81 32.47 48.32 32.18C48.82 31.9 49.25 31.49 49.55 30.99C49.84 30.49 50 29.93 50 29.36C50 28.78 49.84 28.22 49.55 27.73L37.06 6.75C36.76 6.25 36.34 5.84 35.83 5.56C35.32 5.27 34.74 5.12 34.15 5.12C33.56 5.12 32.98 5.27 32.47 5.56C31.96 5.84 31.54 6.26 31.24 6.75L28.05 12.12L21.81 1.63C21.51 1.13 21.09 0.72 20.58 0.43C20.06 0.15 19.49 -0.01 18.9 0C18.31 0 17.73 0.15 17.22 0.43C16.71 0.72 16.28 1.13 15.98 1.63L0.45 27.73C0.15 28.22 0 28.78 0 29.36C0 29.93 0.15 30.49 0.44 30.99C0.74 31.49 1.17 31.9 1.67 32.18C2.19 32.47 2.77 32.62 3.36 32.62L15.02 32.62C19.65 32.62 23.06 30.65 25.4 26.81L31.1 17.24L34.15 12.12L43.3 27.5L31.1 27.5L28.05 32.62ZM14.84 27.5L6.69 27.49L18.9 6.99L24.99 17.24L20.91 24.09C19.35 26.58 17.58 27.49 14.84 27.49L14.84 27.5Z" fill="#FFFFFF" fill-opacity="1.000000" fill-rule="nonzero"/>
</svg>
