<svg width="35.937500" height="37.500000" viewBox="0 0 35.9375 37.5" fill="none" xmlns="http://www.w3.org/2000/svg" xmlns:xlink="http://www.w3.org/1999/xlink">
	<desc>
			Created with Pixso.
	</desc>
	<defs/>
	<path id="Vector" d="M3.12 30.46C3.12 32.61 4.52 34.37 6.25 34.37C6.62 34.36 6.99 34.28 7.34 34.12C7.68 33.96 7.99 33.74 8.24 33.46C8.38 33.3 8.55 33.18 8.74 33.09C8.93 33 9.14 32.95 9.34 32.94C9.55 32.93 9.76 32.97 9.96 33.04C10.15 33.12 10.33 33.23 10.49 33.37C10.64 33.52 10.76 33.69 10.84 33.89C10.92 34.08 10.97 34.29 10.97 34.49C10.97 34.7 10.93 34.91 10.85 35.11C10.77 35.3 10.65 35.47 10.5 35.62C9.95 36.21 9.3 36.67 8.56 37C7.83 37.32 7.04 37.49 6.25 37.5C2.8 37.5 0 34.34 0 30.46C0 26.59 2.8 23.43 6.25 23.43C7.04 23.44 7.83 23.61 8.56 23.93C9.3 24.25 9.95 24.72 10.5 25.31C10.65 25.45 10.77 25.63 10.85 25.82C10.93 26.02 10.97 26.22 10.97 26.43C10.97 26.64 10.92 26.85 10.84 27.04C10.76 27.23 10.64 27.41 10.49 27.55C10.33 27.7 10.15 27.81 9.96 27.89C9.76 27.96 9.55 27.99 9.34 27.99C9.14 27.98 8.93 27.93 8.74 27.84C8.55 27.75 8.38 27.62 8.24 27.47C7.99 27.19 7.68 26.96 7.34 26.81C6.99 26.65 6.62 26.57 6.25 26.56C4.52 26.56 3.12 28.32 3.12 30.46ZM18.67 28.77C17.89 28.54 17.08 28.31 16.63 28.02C16.38 27.86 16.39 27.82 16.41 27.65C16.41 27.5 16.45 27.36 16.52 27.24C16.58 27.11 16.68 27.01 16.8 26.93C17.7 26.32 19.8 26.59 20.67 26.82C21.07 26.92 21.5 26.87 21.86 26.66C22.21 26.45 22.47 26.11 22.58 25.71C22.69 25.3 22.63 24.88 22.42 24.52C22.21 24.16 21.87 23.9 21.47 23.8C21.05 23.69 17.36 22.78 15.05 24.33C14.56 24.66 14.15 25.09 13.85 25.6C13.55 26.1 13.36 26.67 13.3 27.25C12.91 30.36 15.96 31.24 17.79 31.77C20.15 32.45 20.35 32.73 20.28 33.25C20.22 33.72 20.04 33.9 19.87 34.02C18.97 34.62 16.9 34.32 16.05 34.09C15.65 33.98 15.23 34.04 14.87 34.24C14.51 34.45 14.25 34.78 14.14 35.18C14.03 35.57 14.08 36 14.28 36.36C14.48 36.72 14.81 36.98 15.21 37.1C16.18 37.35 17.17 37.48 18.17 37.49C19.31 37.49 20.58 37.29 21.59 36.62C22.09 36.29 22.51 35.85 22.82 35.33C23.13 34.82 23.32 34.24 23.38 33.64C23.82 30.27 20.6 29.33 18.67 28.77ZM31.17 28.77C30.39 28.54 29.58 28.31 29.13 28.02C28.88 27.86 28.89 27.82 28.91 27.65C28.91 27.5 28.95 27.36 29.02 27.24C29.08 27.11 29.18 27.01 29.3 26.93C30.2 26.32 32.29 26.59 33.17 26.82C33.57 26.92 34 26.87 34.35 26.66C34.71 26.45 34.97 26.11 35.08 25.71C35.18 25.3 35.13 24.88 34.92 24.52C34.71 24.16 34.36 23.9 33.96 23.8C33.55 23.69 29.86 22.78 27.55 24.33C27.06 24.66 26.66 25.1 26.35 25.6C26.05 26.11 25.86 26.67 25.8 27.25C25.41 30.36 28.47 31.24 30.3 31.77C32.65 32.45 32.86 32.73 32.79 33.25C32.73 33.72 32.55 33.9 32.37 34.02C31.47 34.62 29.41 34.32 28.56 34.09C28.16 33.98 27.73 34.03 27.37 34.23C27 34.44 26.74 34.78 26.63 35.18C26.52 35.58 26.57 36 26.77 36.37C26.98 36.73 27.32 36.99 27.72 37.1C28.68 37.36 29.68 37.49 30.68 37.5C31.82 37.5 33.08 37.3 34.1 36.62C34.6 36.29 35.02 35.85 35.33 35.34C35.64 34.82 35.83 34.25 35.89 33.65C36.32 30.27 33.1 29.33 31.16 28.77L31.17 28.77ZM1.56 17.18L1.56 3.12C1.56 2.29 1.89 1.5 2.47 0.91C3.06 0.32 3.85 0 4.68 0L23.43 0C23.64 -0.01 23.84 0.04 24.03 0.11C24.22 0.19 24.39 0.31 24.54 0.45L35.48 11.39C35.62 11.53 35.74 11.71 35.81 11.9C35.89 12.09 35.93 12.29 35.93 12.5L35.93 17.18C35.93 17.6 35.77 17.99 35.47 18.29C35.18 18.58 34.78 18.75 34.37 18.75C33.96 18.75 33.56 18.58 33.27 18.29C32.97 17.99 32.81 17.6 32.81 17.18L32.81 14.06L23.43 14.06C23.02 14.06 22.62 13.89 22.33 13.6C22.03 13.31 21.87 12.91 21.87 12.5L21.87 3.12L4.68 3.12L4.68 17.18C4.68 17.6 4.52 17.99 4.22 18.29C3.93 18.58 3.53 18.75 3.12 18.75C2.71 18.75 2.31 18.58 2.02 18.29C1.72 17.99 1.56 17.6 1.56 17.18ZM25 10.93L30.6 10.93L25 5.33L25 10.93Z" fill="#FFFFFF" fill-opacity="1.000000" fill-rule="nonzero"/>
</svg>
