<svg width="41.666626" height="41.666687" viewBox="0 0 41.6666 41.6667" fill="none" xmlns="http://www.w3.org/2000/svg" xmlns:xlink="http://www.w3.org/1999/xlink">
	<desc>
			Created with Pixso.
	</desc>
	<defs/>
	<path id="Vector" d="M20.83 0C9.35 0 0 9.35 0 20.83C0 32.31 9.35 41.66 20.83 41.66C32.31 41.66 41.66 32.31 41.66 20.83C41.66 9.35 32.31 0 20.83 0ZM2.1 20.83C2.1 18.12 2.68 15.54 3.72 13.2L12.66 37.68C6.41 34.64 2.1 28.25 2.1 20.83ZM20.83 39.56C19 39.56 17.22 39.29 15.54 38.79L21.16 22.45L26.91 38.22C26.95 38.31 27 38.41 27.04 38.47C25.1 39.18 23.02 39.56 20.83 39.56ZM23.41 12.04C24.54 11.97 25.56 11.85 25.56 11.85C26.56 11.72 26.45 10.25 25.43 10.31C25.43 10.31 22.39 10.54 20.43 10.54C18.6 10.54 15.5 10.31 15.5 10.31C14.5 10.27 14.37 11.81 15.39 11.87C15.39 11.87 16.35 12 17.35 12.06L20.27 20.06L16.16 32.35L9.35 12.04C10.47 12 11.5 11.87 11.5 11.87C12.5 11.75 12.39 10.27 11.37 10.33C11.37 10.33 8.33 10.56 6.37 10.56C6.02 10.56 5.6 10.56 5.16 10.54C8.54 5.45 14.29 2.1 20.83 2.1C25.7 2.1 30.14 3.95 33.47 7.02C33.39 7.02 33.31 7 33.22 7C31.39 7 30.08 8.6 30.08 10.33C30.08 11.87 30.97 13.18 31.91 14.72C32.62 15.97 33.45 17.58 33.45 19.89C33.45 21.5 32.83 23.35 32.04 25.95L30.16 32.2L23.41 12.04ZM37.27 11.85C39.6 16.13 40.18 21.16 38.87 25.86C37.56 30.56 34.46 34.56 30.25 37.02L35.97 20.47C37.04 17.81 37.39 15.66 37.39 13.77C37.39 13.08 37.35 12.43 37.27 11.85Z" fill="#FFFFFF" fill-opacity="1.000000" fill-rule="nonzero"/>
</svg>
