<svg xmlns="http://www.w3.org/2000/svg" aria-hidden="true" style="position:absolute;width:0;height:0;overflow:hidden"><defs><symbol id="icon-skill-1" viewBox="0 0 39 32"><path d="M33.331 16v-5.333c0-.179-.034-.35-.102-.512s-.162-.316-.29-.435L23.604.385a1.35 1.35 0 0 0-.427-.29 1.331 1.331 0 0 0-.512-.094h-16c-.708 0-1.391.273-1.886.777a2.663 2.663 0 0 0-.785 1.886v13.338a1.338 1.338 0 0 0 1.34 1.332 1.338 1.338 0 0 0 1.332-1.332V2.664h14.669v8.004c0 .35.137.691.384.939.256.247.589.393.947.393h7.996v4.002a1.338 1.338 0 0 0 1.34 1.332 1.338 1.338 0 0 0 1.332-1.332zM23.996 4.548l4.779 4.779h-4.779V4.548zM8.661 22.665v7.996a1.34 1.34 0 0 1-1.332 1.34c-.358 0-.691-.145-.947-.393a1.353 1.353 0 0 1-.384-.947v-2.662H2.661v2.662a1.34 1.34 0 0 1-1.332 1.34c-.358 0-.691-.145-.947-.393a1.353 1.353 0 0 1-.384-.947v-7.996c0-.358.137-.691.384-.947a1.353 1.353 0 0 1 1.886 0c.256.256.393.589.393.947v2.662h3.337v-2.662c0-.358.137-.691.384-.947a1.353 1.353 0 0 1 1.886 0c.256.256.393.589.393.947zm9.336 0c0 .35-.145.691-.393.939a1.304 1.304 0 0 1-.939.393h-1.34v6.665c0 .358-.137.691-.384.947a1.361 1.361 0 0 1-.947.393 1.338 1.338 0 0 1-1.332-1.34v-6.665h-1.331c-.358 0-.7-.137-.947-.393a1.34 1.34 0 0 1-.393-.939c0-.358.145-.691.393-.947.247-.247.589-.384.947-.384h5.333c.35 0 .691.137.939.384.247.256.393.589.393.947zm11.998 0v7.996a1.34 1.34 0 0 1-1.332 1.34c-.358 0-.691-.145-.947-.393a1.353 1.353 0 0 1-.384-.947v-3.994L25.728 28.8a1.32 1.32 0 0 1-.469.393c-.188.085-.393.137-.597.137s-.41-.051-.597-.137a1.473 1.473 0 0 1-.469-.393L22 26.667v3.994a1.345 1.345 0 0 1-1.34 1.34 1.338 1.338 0 0 1-1.332-1.34v-7.996c0-.282.085-.555.256-.785a1.32 1.32 0 0 1 .657-.478c.265-.094.555-.094.819-.009.265.077.503.247.666.469l2.935 3.908 2.935-3.908c.171-.222.401-.393.666-.469.273-.085.555-.085.819.009.265.085.495.256.666.478.162.23.247.503.247.785zm9.335 7.995A1.34 1.34 0 0 1 37.998 32H33.33c-.358 0-.691-.145-.947-.393a1.353 1.353 0 0 1-.384-.947v-7.996c0-.358.137-.691.384-.947a1.353 1.353 0 0 1 1.886 0c.256.256.393.589.393.947v6.665h3.337c.35 0 .691.137.939.393.247.247.393.589.393.939z"/></symbol><symbol id="icon-skill-2" viewBox="0 0 31 32"><path d="M2.662 25.993c0 1.835 1.195 3.337 2.671 3.337.316-.009.631-.077.93-.213a2.39 2.39 0 0 0 .768-.563 1.375 1.375 0 0 1 .939-.444c.179-.009.358.026.529.085.162.068.316.162.452.282.128.128.23.273.299.444.068.162.111.341.111.512 0 .179-.034.358-.102.529a1.365 1.365 0 0 1-.299.435 5.072 5.072 0 0 1-1.655 1.178 5.094 5.094 0 0 1-1.971.427c-2.944 0-5.333-2.697-5.333-6.007 0-3.302 2.389-5.999 5.333-5.999a5.094 5.094 0 0 1 1.971.427 4.928 4.928 0 0 1 1.655 1.178c.128.119.23.273.299.435.068.171.102.341.102.521a1.363 1.363 0 0 1-.41.956c-.137.128-.29.222-.452.29-.171.06-.35.085-.529.085-.171-.009-.35-.051-.512-.128s-.307-.188-.427-.316a2.366 2.366 0 0 0-1.698-.776c-1.476 0-2.671 1.502-2.671 3.328zm13.27-1.443c-.666-.196-1.357-.393-1.741-.64-.213-.137-.205-.171-.188-.316 0-.128.034-.247.094-.35a.655.655 0 0 1 .239-.265c.768-.521 2.56-.29 3.302-.094.341.085.708.043 1.015-.137.299-.179.521-.469.614-.811.094-.35.043-.708-.137-1.015s-.469-.529-.811-.614c-.358-.094-3.507-.87-5.478.452a3.44 3.44 0 0 0-1.493 2.492c-.333 2.654 2.27 3.405 3.831 3.857 2.014.58 2.185.819 2.125 1.263-.051.401-.205.555-.35.657-.768.512-2.534.256-3.26.06a1.336 1.336 0 0 0-1.007.128 1.335 1.335 0 0 0 .29 2.44c.828.213 1.673.324 2.526.333.973 0 2.057-.171 2.918-.742a3.412 3.412 0 0 0 1.05-1.101c.265-.435.427-.93.478-1.442.375-2.876-2.372-3.678-4.019-4.156zm10.666 0c-.666-.196-1.357-.393-1.741-.64-.213-.137-.205-.171-.188-.316 0-.128.034-.247.094-.35a.655.655 0 0 1 .239-.265c.768-.521 2.551-.29 3.302-.094.341.085.708.043 1.007-.137a1.35 1.35 0 0 0 .623-.811c.085-.35.043-.708-.137-1.015s-.478-.529-.819-.614c-.35-.094-3.499-.87-5.47.452a3.556 3.556 0 0 0-1.024 1.084 3.48 3.48 0 0 0-.469 1.408c-.333 2.654 2.278 3.405 3.84 3.857 2.005.58 2.185.819 2.125 1.263-.051.401-.205.555-.358.657-.768.512-2.526.256-3.251.06a1.326 1.326 0 0 0-1.646.93c-.093.342-.051.7.119 1.015.179.307.469.529.811.623.819.222 1.673.333 2.526.341.973 0 2.048-.171 2.918-.751a3.475 3.475 0 0 0 1.05-1.092c.265-.444.427-.93.478-1.442.367-2.884-2.381-3.686-4.036-4.164h.009zM1.331 14.66V2.662c0-.708.282-1.382.777-1.886a2.655 2.655 0 0 1 1.886-.777h16c.179-.009.35.034.512.094.162.068.307.171.435.29l9.335 9.335c.119.119.222.273.282.435.068.162.102.333.102.512v3.994a1.34 1.34 0 0 1-1.332 1.34 1.338 1.338 0 0 1-1.332-1.34v-2.662h-8.004c-.35 0-.691-.145-.939-.393a1.304 1.304 0 0 1-.393-.939V2.661H3.991v11.998a1.34 1.34 0 0 1-1.332 1.34 1.338 1.338 0 0 1-1.332-1.34zm20.002-5.333h4.779l-4.779-4.779v4.779z"/></symbol><symbol id="icon-skill-3" viewBox="0 0 29 32"><path d="M28.562 8.972 19.945.355a1.38 1.38 0 0 0-.402-.268A1.2 1.2 0 0 0 19.07 0H4.301C3.647 0 3.025.252 2.56.717a2.482 2.482 0 0 0-.717 1.741v11.075a1.235 1.235 0 0 0 1.228 1.236c.331 0 .638-.134.874-.362.228-.236.354-.543.354-.874V2.458h13.54v7.389a1.235 1.235 0 0 0 1.228 1.228h7.389v18.463h-3.694a1.222 1.222 0 0 0-1.228 1.228c0 .323.126.638.362.866.228.236.544.362.866.362h3.694a2.464 2.464 0 0 0 2.458-2.458V9.844c0-.165-.032-.323-.087-.473a1.292 1.292 0 0 0-.268-.402zm-8.255-4.774 4.411 4.411h-4.411V4.198zm-1.875 22.308a3.334 3.334 0 0 1-.449 1.331 3.194 3.194 0 0 1-.969 1.008c-.796.536-1.788.693-2.694.693a9.339 9.339 0 0 1-2.332-.315 1.207 1.207 0 0 1-.74-.575 1.222 1.222 0 0 1-.118-.937c.095-.315.299-.583.583-.74.284-.165.622-.205.937-.118.67.189 2.308.417 3.009-.055.134-.087.284-.228.331-.599.047-.41-.11-.63-1.969-1.174-1.441-.41-3.844-1.111-3.537-3.552.047-.465.197-.906.433-1.308.244-.394.567-.733.953-.992 1.82-1.229 4.718-.512 5.049-.425.315.087.583.291.748.575.165.276.213.614.126.929-.079.315-.284.583-.567.748s-.622.213-.937.134c-.685-.181-2.339-.394-3.048.079a.625.625 0 0 0-.221.252.635.635 0 0 0-.087.315c-.016.142-.024.165.173.291.354.228.992.417 1.607.591 1.512.441 4.057 1.182 3.718 3.844zM7.995 19.692v5.845a3.98 3.98 0 0 1-1.174 2.828 4.001 4.001 0 0 1-2.828 1.174c-1.055 0-2.079-.425-2.828-1.174s-1.166-1.772-1.166-2.828c0-.331.126-.638.354-.874.236-.228.543-.362.874-.362a1.235 1.235 0 0 1 1.228 1.236c0 .402.165.796.449 1.087a1.57 1.57 0 0 0 1.087.449 1.543 1.543 0 0 0 1.544-1.536v-5.845c0-.331.126-.646.354-.874.236-.228.543-.362.874-.362.323 0 .638.134.866.362.236.228.362.544.362.874z"/></symbol><symbol id="icon-skill-4" viewBox="0 0 31 32"><path d="m9.25 21.777-3.328 9.335a1.353 1.353 0 0 1-.495.64 1.29 1.29 0 0 1-.768.247c-.273 0-.538-.085-.768-.247a1.379 1.379 0 0 1-.486-.64L.077 21.777a1.316 1.316 0 0 1 .051-1.015c.068-.162.179-.307.307-.418.128-.119.282-.213.444-.273a1.36 1.36 0 0 1 .521-.077c.171.009.341.06.503.128.154.077.299.179.418.316.111.128.205.282.265.444l2.074 5.82 2.082-5.82c.119-.333.367-.606.683-.759.324-.145.691-.171 1.024-.051s.597.367.751.691c.154.316.171.683.051 1.015zm20.079.887c.35 0 .691-.145.939-.393.256-.247.393-.589.393-.939 0-.358-.137-.7-.393-.947a1.34 1.34 0 0 0-.939-.393h-5.333c-.358 0-.691.145-.947.393a1.337 1.337 0 0 0-.384.947v9.327c0 .358.137.691.384.947.256.247.589.393.947.393h5.333a1.338 1.338 0 0 0 1.332-1.34c0-.35-.137-.691-.393-.939a1.304 1.304 0 0 0-.939-.393h-4.002V27.33h2.671a1.338 1.338 0 0 0 1.332-1.34 1.338 1.338 0 0 0-1.332-1.332h-2.671v-1.997h4.002zm-10.667-2.671c-.358 0-.691.145-.947.393a1.337 1.337 0 0 0-.384.947v6.332a1.676 1.676 0 0 1-1.673 1.664c-.435 0-.862-.179-1.178-.486a1.704 1.704 0 0 1-.486-1.178v-6.332c0-.358-.137-.7-.393-.947a1.34 1.34 0 0 0-.939-.393c-.358 0-.691.145-.947.393a1.337 1.337 0 0 0-.384.947v6.332c0 1.143.452 2.253 1.263 3.063a4.362 4.362 0 0 0 3.063 1.271 4.334 4.334 0 0 0 3.063-1.271 4.314 4.314 0 0 0 1.271-3.063v-6.332c0-.358-.137-.7-.393-.947a1.34 1.34 0 0 0-.939-.393zm11.998-9.326v3.994a1.34 1.34 0 0 1-1.332 1.34c-.358 0-.691-.145-.947-.393a1.353 1.353 0 0 1-.384-.947v-2.662h-8.004c-.35 0-.691-.145-.939-.393a1.304 1.304 0 0 1-.393-.939V2.663H3.992v11.998a1.34 1.34 0 0 1-1.332 1.34c-.358 0-.691-.145-.947-.393a1.353 1.353 0 0 1-.384-.947V2.663c0-.708.282-1.382.777-1.886A2.655 2.655 0 0 1 3.992 0h16c.179-.009.35.034.512.094.162.068.307.171.435.29l9.327 9.335c.128.119.222.273.29.435s.102.333.102.512zm-4.548-1.34-4.787-4.779v4.779h4.787z"/></symbol><symbol id="icon-skill-5" viewBox="0 0 49 32"><path d="M27.513 31.995h18.224c.579 0 1.157-.147 1.658-.432.49-.275.912-.677 1.206-1.167.284-.49.441-1.04.441-1.599 0-.569-.157-1.118-.441-1.599L36.35 6.62a3.201 3.201 0 0 0-1.206-1.167c-.5-.284-1.069-.432-1.648-.432s-1.148.147-1.648.432c-.5.275-.912.687-1.206 1.167l-3.129 5.267-6.12-10.289A3.304 3.304 0 0 0 20.187.421a3.345 3.345 0 0 0-1.648-.422c-.579 0-1.148.147-1.648.422-.5.284-.922.687-1.216 1.177L.443 27.198a3.047 3.047 0 0 0-.441 1.599c0 .559.147 1.108.432 1.599.294.49.716.893 1.206 1.167.51.284 1.079.432 1.658.432h11.437c4.541 0 7.886-1.932 10.181-5.699l8.582-14.409 8.975 15.085H30.507l-2.992 5.022zm-12.957-5.022-7.994-.01L18.538 6.856l5.973 10.054-4.002 6.719c-1.53 2.442-3.266 3.335-5.954 3.335v.01z"/></symbol><symbol id="icon-skill-6" viewBox="0 0 32 32"><path d="M15.997 0C7.18 0 0 7.181 0 15.997s7.181 15.997 15.997 15.997c8.817 0 15.997-7.181 15.997-15.997S24.813 0 15.997 0zM1.613 15.997c0-2.081.445-4.063 1.244-5.86l6.866 18.801c-4.8-2.335-8.11-7.242-8.11-12.941zm14.384 14.385c-1.405 0-2.772-.207-4.063-.591l4.316-12.549 4.416 12.111c.031.069.069.146.1.192-1.49.545-3.087.837-4.769.837zm1.982-21.135a34.148 34.148 0 0 0 1.651-.146c.768-.1.684-1.229-.1-1.183 0 0-2.335.177-3.84.177-1.405 0-3.786-.177-3.786-.177-.768-.031-.868 1.152-.084 1.198 0 0 .737.1 1.505.146l2.243 6.144-3.156 9.439-5.23-15.598c.86-.031 1.651-.131 1.651-.131.768-.092.684-1.229-.1-1.183 0 0-2.335.177-3.84.177-.269 0-.591 0-.929-.015 2.596-3.909 7.012-6.482 12.035-6.482 3.74 0 7.15 1.421 9.707 3.779-.061 0-.123-.015-.192-.015-1.405 0-2.412 1.229-2.412 2.557 0 1.183.684 2.189 1.405 3.372.545.96 1.183 2.196 1.183 3.971 0 1.236-.476 2.657-1.083 4.654l-1.444 4.8-5.184-15.483zm10.644-.146c1.789 3.287 2.235 7.15 1.229 10.76s-3.387 6.682-6.62 8.571l4.393-12.71c.822-2.043 1.091-3.694 1.091-5.146 0-.53-.031-1.029-.092-1.475z"/></symbol></defs></svg>